<svg width="23" height="23" viewBox="0 0 23 23" fill="none" xmlns="http://www.w3.org/2000/svg">
<path d="M14.2495 11.0208L21.9455 3.32481C22.3108 2.96021 22.5162 2.46544 22.5167 1.94935C22.5171 1.43326 22.3126 0.93813 21.948 0.572878C21.5833 0.207627 21.0886 0.00217461 20.5725 0.00171883C20.0564 0.00126306 19.5613 0.205841 19.196 0.570448L11.5 8.26647L3.80398 0.570448C3.43873 0.205196 2.94334 0 2.42679 0C1.91025 0 1.41486 0.205196 1.04961 0.570448C0.684361 0.9357 0.479164 1.43109 0.479164 1.94763C0.479164 2.46417 0.684361 2.95956 1.04961 3.32481L8.74563 11.0208L1.04961 18.7169C0.684361 19.0821 0.479164 19.5775 0.479164 20.094C0.479164 20.6106 0.684361 21.106 1.04961 21.4712C1.41486 21.8365 1.91025 22.0417 2.42679 22.0417C2.94334 22.0417 3.43873 21.8365 3.80398 21.4712L11.5 13.7752L19.196 21.4712C19.5613 21.8365 20.0567 22.0417 20.5732 22.0417C21.0897 22.0417 21.5851 21.8365 21.9504 21.4712C22.3156 21.106 22.5208 20.6106 22.5208 20.094C22.5208 19.5775 22.3156 19.0821 21.9504 18.7169L14.2495 11.0208Z" fill="black"/>
<path d="M14.2495 11.0208L21.9455 3.32481C22.3108 2.96021 22.5162 2.46544 22.5167 1.94935C22.5171 1.43326 22.3126 0.93813 21.948 0.572878C21.5833 0.207627 21.0886 0.00217461 20.5725 0.00171883C20.0564 0.00126306 19.5613 0.205841 19.196 0.570448L11.5 8.26647L3.80398 0.570448C3.43873 0.205196 2.94334 0 2.42679 0C1.91025 0 1.41486 0.205196 1.04961 0.570448C0.684361 0.9357 0.479164 1.43109 0.479164 1.94763C0.479164 2.46417 0.684361 2.95956 1.04961 3.32481L8.74563 11.0208L1.04961 18.7169C0.684361 19.0821 0.479164 19.5775 0.479164 20.094C0.479164 20.6106 0.684361 21.106 1.04961 21.4712C1.41486 21.8365 1.91025 22.0417 2.42679 22.0417C2.94334 22.0417 3.43873 21.8365 3.80398 21.4712L11.5 13.7752L19.196 21.4712C19.5613 21.8365 20.0567 22.0417 20.5732 22.0417C21.0897 22.0417 21.5851 21.8365 21.9504 21.4712C22.3156 21.106 22.5208 20.6106 22.5208 20.094C22.5208 19.5775 22.3156 19.0821 21.9504 18.7169L14.2495 11.0208Z" stroke="black"/>
<rect x="21.0833" y="2.875" width="0.958333" height="0.958333" fill="black"/>
<rect x="20.125" y="3.83334" width="0.958333" height="0.958333" fill="black"/>
<rect x="19.1667" y="4.79166" width="0.958333" height="0.958333" fill="black"/>
<rect x="18.2083" y="5.75" width="0.958333" height="0.958333" fill="black"/>
<rect x="17.25" y="6.70834" width="0.958333" height="0.958333" fill="black"/>
<rect x="16.2917" y="7.66666" width="0.958333" height="0.958333" fill="black"/>
<rect x="15.3333" y="8.625" width="0.958333" height="0.958333" fill="black"/>
<rect x="14.375" y="9.58334" width="0.958333" height="0.958333" fill="black"/>
<rect x="13.4167" y="10.5417" width="0.958333" height="0.958333" fill="black"/>
<rect x="22.0417" y="1.91666" width="0.958333" height="0.958333" fill="black"/>
<rect x="22.0417" y="0.958344" width="0.958333" height="0.958333" fill="black"/>
<rect x="21.0833" width="0.958333" height="0.958333" fill="black"/>
<rect x="20.125" width="0.958333" height="0.958333" fill="black"/>
<rect x="19.1667" width="0.958333" height="0.958333" fill="black"/>
<rect x="18.2083" y="0.958344" width="0.958333" height="0.958333" fill="black"/>
<rect x="17.25" y="1.91666" width="0.958333" height="0.958333" fill="black"/>
<rect x="16.2917" y="2.875" width="0.958333" height="0.958333" fill="black"/>
<rect x="15.3333" y="3.83334" width="0.958333" height="0.958333" fill="black"/>
<rect x="14.375" y="4.79166" width="0.958333" height="0.958333" fill="black"/>
<rect x="13.4167" y="5.75" width="0.958333" height="0.958333" fill="black"/>
<rect x="12.4583" y="6.70834" width="0.958333" height="0.958333" fill="black"/>
<rect x="11.5" y="7.66666" width="0.958333" height="0.958333" fill="black"/>
<rect x="3.83334" y="0.958344" width="0.958333" height="0.958333" fill="black"/>
<rect x="4.79166" y="1.91666" width="0.958333" height="0.958333" fill="black"/>
<rect x="5.75" y="2.875" width="0.958333" height="0.958333" fill="black"/>
<rect x="6.70834" y="3.83334" width="0.958333" height="0.958333" fill="black"/>
<rect x="7.66667" y="4.79166" width="0.958333" height="0.958333" fill="black"/>
<rect x="8.625" y="5.75" width="0.958333" height="0.958333" fill="black"/>
<rect x="9.58333" y="6.70834" width="0.958333" height="0.958333" fill="black"/>
<rect x="10.5417" y="7.66666" width="0.958333" height="0.958333" fill="black"/>
<rect x="2.875" width="0.958333" height="0.958333" fill="black"/>
<rect x="1.91666" width="0.958333" height="0.958333" fill="black"/>
<rect x="0.958336" width="0.958333" height="0.958333" fill="black"/>
<rect y="0.958344" width="0.958333" height="0.958333" fill="black"/>
<rect y="1.91666" width="0.958333" height="0.958333" fill="black"/>
<rect x="0.958336" y="2.875" width="0.958333" height="0.958333" fill="black"/>
<rect x="1.91666" y="3.83334" width="0.958333" height="0.958333" fill="black"/>
<rect x="2.875" y="4.79166" width="0.958333" height="0.958333" fill="black"/>
<rect x="3.83334" y="5.75" width="0.958333" height="0.958333" fill="black"/>
<rect x="4.79166" y="6.70834" width="0.958333" height="0.958333" fill="black"/>
<rect x="5.75" y="7.66666" width="0.958333" height="0.958333" fill="black"/>
<rect x="6.70834" y="8.625" width="0.958333" height="0.958333" fill="black"/>
<rect x="7.66667" y="9.58334" width="0.958333" height="0.958333" fill="black"/>
<rect x="8.625" y="10.5417" width="0.958333" height="0.958333" fill="black"/>
<rect x="7.66667" y="11.5" width="0.958333" height="0.958333" fill="black"/>
<rect x="6.70834" y="12.4583" width="0.958333" height="0.958333" fill="black"/>
<rect x="5.75" y="13.4167" width="0.958333" height="0.958333" fill="black"/>
<rect x="4.79166" y="14.375" width="0.958333" height="0.958333" fill="black"/>
<rect x="3.83334" y="15.3333" width="0.958333" height="0.958333" fill="black"/>
<rect x="2.875" y="16.2917" width="0.958333" height="0.958333" fill="black"/>
<rect x="1.91666" y="17.25" width="0.958333" height="0.958333" fill="black"/>
<rect x="0.958336" y="18.2083" width="0.958333" height="0.958333" fill="black"/>
<rect y="19.1667" width="0.958333" height="0.958333" fill="black"/>
<rect y="20.125" width="0.958333" height="0.958333" fill="black"/>
<rect x="0.958336" y="21.0833" width="0.958333" height="0.958333" fill="black"/>
<rect x="1.91666" y="21.0833" width="0.958333" height="0.958333" fill="black"/>
<rect x="1.91666" y="22.0417" width="0.958333" height="0.958333" fill="black"/>
<rect x="2.875" y="21.0833" width="0.958333" height="0.958333" fill="black"/>
<rect x="10.5417" y="13.4167" width="0.958333" height="0.958333" fill="black"/>
<rect x="9.58333" y="14.375" width="0.958333" height="0.958333" fill="black"/>
<rect x="8.625" y="15.3333" width="0.958333" height="0.958333" fill="black"/>
<rect x="7.66667" y="16.2917" width="0.958333" height="0.958333" fill="black"/>
<rect x="6.70834" y="17.25" width="0.958333" height="0.958333" fill="black"/>
<rect x="5.75" y="18.2083" width="0.958333" height="0.958333" fill="black"/>
<rect x="4.79166" y="19.1667" width="0.958333" height="0.958333" fill="black"/>
<rect x="3.83334" y="20.125" width="0.958333" height="0.958333" fill="black"/>
<rect x="11.5" y="13.4167" width="0.958333" height="0.958333" fill="black"/>
<rect x="12.4583" y="14.375" width="0.958333" height="0.958333" fill="black"/>
<rect x="13.4167" y="15.3333" width="0.958333" height="0.958333" fill="black"/>
<rect x="14.375" y="16.2917" width="0.958333" height="0.958333" fill="black"/>
<rect x="15.3333" y="17.25" width="0.958333" height="0.958333" fill="black"/>
<rect x="16.2917" y="18.2083" width="0.958333" height="0.958333" fill="black"/>
<rect x="17.25" y="19.1667" width="0.958333" height="0.958333" fill="black"/>
<rect x="18.2083" y="20.125" width="0.958333" height="0.958333" fill="black"/>
<rect x="19.1667" y="21.0833" width="0.958333" height="0.958333" fill="black"/>
<rect x="20.125" y="22.0417" width="0.958333" height="0.958333" fill="black"/>
<rect x="21.0833" y="21.0833" width="0.958333" height="0.958333" fill="black"/>
<rect x="20.125" y="21.0833" width="0.958333" height="0.958333" fill="black"/>
<rect x="22.0417" y="20.125" width="0.958333" height="0.958333" fill="black"/>
<rect x="22.0417" y="19.1667" width="0.958333" height="0.958333" fill="black"/>
<rect x="21.0833" y="18.2083" width="0.958333" height="0.958333" fill="black"/>
<rect x="14.375" y="11.5" width="0.958333" height="0.958333" fill="black"/>
<rect x="15.3333" y="12.4583" width="0.958333" height="0.958333" fill="black"/>
<rect x="16.2917" y="13.4167" width="0.958333" height="0.958333" fill="black"/>
<rect x="17.25" y="14.375" width="0.958333" height="0.958333" fill="black"/>
<rect x="18.2083" y="15.3333" width="0.958333" height="0.958333" fill="black"/>
<rect x="19.1667" y="16.2917" width="0.958333" height="0.958333" fill="black"/>
<rect x="20.125" y="17.25" width="0.958333" height="0.958333" fill="black"/>
</svg>
