<svg width="38" height="38" viewBox="0 0 38 38" fill="none" xmlns="http://www.w3.org/2000/svg">
<path d="M37 5.06997L32.8138 1L19 14.43L5.18625 1L1 5.06997L14.8137 18.5L1 31.93L5.18625 36L19 22.57L32.8138 36L37 31.93L23.1862 18.5L37 5.06997Z" fill="#A52626"/>
<rect x="34" y="2" width="2" height="2" fill="#A52626"/>
<rect x="36" y="4" width="2" height="2" fill="#A52626"/>
<rect x="32" width="2" height="2" fill="#A52626"/>
<rect x="30" y="2" width="2" height="2" fill="#A52626"/>
<rect x="28" y="4" width="2" height="2" fill="#A52626"/>
<rect x="26" y="6" width="2" height="2" fill="#A52626"/>
<rect x="24" y="8" width="2" height="2" fill="#A52626"/>
<rect x="22" y="10" width="2" height="2" fill="#A52626"/>
<rect x="20" y="12" width="2" height="2" fill="#A52626"/>
<rect x="18" y="14" width="2" height="2" fill="#A52626"/>
<rect x="4" width="2" height="2" fill="#A52626"/>
<rect x="6" y="2" width="2" height="2" fill="#A52626"/>
<rect x="8" y="4" width="2" height="2" fill="#A52626"/>
<rect x="10" y="6" width="2" height="2" fill="#A52626"/>
<rect x="12" y="8" width="2" height="2" fill="#A52626"/>
<rect x="14" y="10" width="2" height="2" fill="#A52626"/>
<rect x="16" y="12" width="2" height="2" fill="#A52626"/>
<rect x="2" y="2" width="2" height="2" fill="#A52626"/>
<rect y="4" width="2" height="2" fill="#A52626"/>
<rect x="2" y="6" width="2" height="2" fill="#A52626"/>
<rect x="4" y="8" width="2" height="2" fill="#A52626"/>
<rect x="6" y="10" width="2" height="2" fill="#A52626"/>
<rect x="8" y="12" width="2" height="2" fill="#A52626"/>
<rect x="10" y="14" width="2" height="2" fill="#A52626"/>
<rect x="12" y="16" width="2" height="2" fill="#A52626"/>
<rect x="14" y="18" width="2" height="2" fill="#A52626"/>
<rect x="12" y="20" width="2" height="2" fill="#A52626"/>
<rect x="10" y="22" width="2" height="2" fill="#A52626"/>
<rect x="8" y="24" width="2" height="2" fill="#A52626"/>
<rect x="6" y="26" width="2" height="2" fill="#A52626"/>
<rect x="4" y="28" width="2" height="2" fill="#A52626"/>
<rect y="30" width="2" height="2" fill="#A52626"/>
<rect x="2" y="28" width="2" height="2" fill="#A52626"/>
<rect x="2" y="32" width="2" height="2" fill="#A52626"/>
<rect x="4" y="34" width="2" height="2" fill="#A52626"/>
<rect x="4" y="36" width="2" height="2" fill="#A52626"/>
<rect x="18" y="22" width="2" height="2" fill="#A52626"/>
<rect x="16" y="24" width="2" height="2" fill="#A52626"/>
<rect x="14" y="26" width="2" height="2" fill="#A52626"/>
<rect x="12" y="28" width="2" height="2" fill="#A52626"/>
<rect x="10" y="30" width="2" height="2" fill="#A52626"/>
<rect x="8" y="32" width="2" height="2" fill="#A52626"/>
<rect x="6" y="34" width="2" height="2" fill="#A52626"/>
<rect x="20" y="24" width="2" height="2" fill="#A52626"/>
<rect x="22" y="26" width="2" height="2" fill="#A52626"/>
<rect x="24" y="28" width="2" height="2" fill="#A52626"/>
<rect x="26" y="30" width="2" height="2" fill="#A52626"/>
<rect x="28" y="32" width="2" height="2" fill="#A52626"/>
<rect x="30" y="34" width="2" height="2" fill="#A52626"/>
<rect x="32" y="36" width="2" height="2" fill="#A52626"/>
<rect x="34" y="32" width="2" height="2" fill="#A52626"/>
<rect x="32" y="34" width="2" height="2" fill="#A52626"/>
<rect x="36" y="30" width="2" height="2" fill="#A52626"/>
<rect x="22" y="18" width="2" height="2" fill="#A52626"/>
<rect x="24" y="20" width="2" height="2" fill="#A52626"/>
<rect x="26" y="22" width="2" height="2" fill="#A52626"/>
<rect x="28" y="24" width="2" height="2" fill="#A52626"/>
<rect x="30" y="26" width="2" height="2" fill="#A52626"/>
<rect x="32" y="28" width="2" height="2" fill="#A52626"/>
<rect x="34" y="28" width="2" height="2" fill="#A52626"/>
<rect x="34" y="6" width="2" height="2" fill="#A52626"/>
<rect x="32" y="8" width="2" height="2" fill="#A52626"/>
<rect x="30" y="10" width="2" height="2" fill="#A52626"/>
<rect x="28" y="12" width="2" height="2" fill="#A52626"/>
<rect x="26" y="14" width="2" height="2" fill="#A52626"/>
<rect x="24" y="16" width="2" height="2" fill="#A52626"/>
</svg>
